# xmcd CD database file
#
# Track frame offsets:
#	183
#	17168
#	32173
#	45933
#	60203
#	79855
#	99608
#	117993
#	136188
#
# Disc length: 2008 seconds
#
# Revision: 0
# Processed by: cddbd v1.4PL0 Copyright (c) Steve Scherf et al.
# Submitted via: Feurio! 1.65 - http://www.feurio.com
#
DISCID=6707d609
DTITLE=Zambos Bluesband - Fed up
DYEAR=1900
DGENRE=
TTITLE0=Fed up with you
TTITLE1=Born under a bad sign
TTITLE2=Caldonia
TTITLE3=I loved another woman
TTITLE4=Chicks for money
TTITLE5=In love again
TTITLE6=Still cryin the blues
TTITLE7=Signed
TTITLE8=Sometimes
EXTD=
EXTT0=
EXTT1=
EXTT2=
EXTT3=
EXTT4=
EXTT5=
EXTT6=
EXTT7=
EXTT8=
PLAYORDER=
